<?xml version="1.0" encoding="UTF-8"?>
<svg id="mmd-20" width="100%" xmlns="http://www.w3.org/2000/svg" style="max-width: 100%; height: auto;" viewBox="-8 -8 1938.9921875 2156.293212890625" role="graphics-document document" aria-roledescription="flowchart-v2"><rect width="100%" height="100%" fill="#ffffff"/><style>#mmd-20{font-family:"trebuchet ms",verdana,arial,sans-serif;font-size:16px;fill:#333;}#mmd-20 .error-icon{fill:#552222;}#mmd-20 .error-text{fill:#552222;stroke:#552222;}#mmd-20 .edge-thickness-normal{stroke-width:2px;}#mmd-20 .edge-thickness-thick{stroke-width:3.5px;}#mmd-20 .edge-pattern-solid{stroke-dasharray:0;}#mmd-20 .edge-pattern-dashed{stroke-dasharray:3;}#mmd-20 .edge-pattern-dotted{stroke-dasharray:2;}#mmd-20 .marker{fill:#333333;stroke:#333333;}#mmd-20 .marker.cross{stroke:#333333;}#mmd-20 svg{font-family:"trebuchet ms",verdana,arial,sans-serif;font-size:16px;}#mmd-20 .label{font-family:"trebuchet ms",verdana,arial,sans-serif;color:#333;}#mmd-20 .cluster-label text{fill:#333;}#mmd-20 .cluster-label span,#mmd-20 p{color:#333;}#mmd-20 .label text,#mmd-20 span,#mmd-20 p{fill:#333;color:#333;}#mmd-20 .node rect,#mmd-20 .node circle,#mmd-20 .node ellipse,#mmd-20 .node polygon,#mmd-20 .node path{fill:#ECECFF;stroke:#9370DB;stroke-width:1px;}#mmd-20 .flowchart-label text{text-anchor:middle;}#mmd-20 .node .katex path{fill:#000;stroke:#000;stroke-width:1px;}#mmd-20 .node .label{text-align:center;}#mmd-20 .node.clickable{cursor:pointer;}#mmd-20 .arrowheadPath{fill:#333333;}#mmd-20 .edgePath .path{stroke:#333333;stroke-width:2.0px;}#mmd-20 .flowchart-link{stroke:#333333;fill:none;}#mmd-20 .edgeLabel{background-color:#e8e8e8;text-align:center;}#mmd-20 .edgeLabel rect{opacity:0.5;background-color:#e8e8e8;fill:#e8e8e8;}#mmd-20 .labelBkg{background-color:rgba(232, 232, 232, 0.5);}#mmd-20 .cluster rect{fill:#ffffde;stroke:#aaaa33;stroke-width:1px;}#mmd-20 .cluster text{fill:#333;}#mmd-20 .cluster span,#mmd-20 p{color:#333;}#mmd-20 div.mermaidTooltip{position:absolute;text-align:center;max-width:200px;padding:2px;font-family:"trebuchet ms",verdana,arial,sans-serif;font-size:12px;background:hsl(80, 100%, 96.2745098039%);border:1px solid #aaaa33;border-radius:2px;pointer-events:none;z-index:100;}#mmd-20 .flowchartTitleText{text-anchor:middle;font-size:18px;fill:#333;}#mmd-20 :root{--mermaid-font-family:"trebuchet ms",verdana,arial,sans-serif;}</style><g><marker id="mmd-20_flowchart-pointEnd" class="marker flowchart" viewBox="0 0 10 10" refX="6" refY="5" markerUnits="userSpaceOnUse" markerWidth="12" markerHeight="12" orient="auto"><path d="M 0 0 L 10 5 L 0 10 z" class="arrowMarkerPath" style="stroke-width: 1; stroke-dasharray: 1, 0;"/></marker><marker id="mmd-20_flowchart-pointStart" class="marker flowchart" viewBox="0 0 10 10" refX="4.5" refY="5" markerUnits="userSpaceOnUse" markerWidth="12" markerHeight="12" orient="auto"><path d="M 0 5 L 10 10 L 10 0 z" class="arrowMarkerPath" style="stroke-width: 1; stroke-dasharray: 1, 0;"/></marker><marker id="mmd-20_flowchart-circleEnd" class="marker flowchart" viewBox="0 0 10 10" refX="11" refY="5" markerUnits="userSpaceOnUse" markerWidth="11" markerHeight="11" orient="auto"><circle cx="5" cy="5" r="5" class="arrowMarkerPath" style="stroke-width: 1; stroke-dasharray: 1, 0;"/></marker><marker id="mmd-20_flowchart-circleStart" class="marker flowchart" viewBox="0 0 10 10" refX="-1" refY="5" markerUnits="userSpaceOnUse" markerWidth="11" markerHeight="11" orient="auto"><circle cx="5" cy="5" r="5" class="arrowMarkerPath" style="stroke-width: 1; stroke-dasharray: 1, 0;"/></marker><marker id="mmd-20_flowchart-crossEnd" class="marker cross flowchart" viewBox="0 0 11 11" refX="12" refY="5.2" markerUnits="userSpaceOnUse" markerWidth="11" markerHeight="11" orient="auto"><path d="M 1,1 l 9,9 M 10,1 l -9,9" class="arrowMarkerPath" style="stroke-width: 2; stroke-dasharray: 1, 0;"/></marker><marker id="mmd-20_flowchart-crossStart" class="marker cross flowchart" viewBox="0 0 11 11" refX="-1" refY="5.2" markerUnits="userSpaceOnUse" markerWidth="11" markerHeight="11" orient="auto"><path d="M 1,1 l 9,9 M 10,1 l -9,9" class="arrowMarkerPath" style="stroke-width: 2; stroke-dasharray: 1, 0;"/></marker><g class="root"><g class="clusters"><g class="cluster default flowchart-label" id="OUT"><rect style="" rx="0" ry="0" x="4.8515625" y="0" width="1905.76953125" height="184"/><g class="cluster-label" transform="translate(957.736328125, 0)"><text style=""><tspan xml:space="preserve" dy="1em" x="0" class="row">⑥ 出参</tspan></text></g></g><g class="cluster default flowchart-label" id="DB"><rect style="" rx="0" ry="0" x="208.41796875" y="1912.2265625" width="897.90625" height="228.06657791137695"/><g class="cluster-label" transform="translate(657.37109375, 1912.2265625)"><text style=""><tspan xml:space="preserve" dy="1em" x="0" class="row">⑤ 数据存储</tspan></text></g></g><g class="cluster default flowchart-label" id="DAO"><rect style="" rx="0" ry="0" x="647.01953125" y="1640.2265625" width="523.984375" height="203"/><g class="cluster-label" transform="translate(909.01171875, 1640.2265625)"><text style=""><tspan xml:space="preserve" dy="1em" x="0" class="row">④ 数据访问层 Mapper / DAO（本项目：mapper 包）</tspan></text></g></g><g class="cluster default flowchart-label" id="SVC"><rect style="" rx="0" ry="0" x="0" y="1320.2265625" width="1389.59375" height="251"/><g class="cluster-label" transform="translate(694.796875, 1320.2265625)"><text style=""><tspan xml:space="preserve" dy="1em" x="0" class="row">③ 业务层 Service（本项目：service 包 extends ServiceImpl）</tspan></text></g></g><g class="cluster default flowchart-label" id="CTRL"><rect style="" rx="0" ry="0" x="1237.53125" y="929.2265625" width="487.26171875" height="322"/><g class="cluster-label" transform="translate(1481.162109375, 929.2265625)"><text style=""><tspan xml:space="preserve" dy="1em" x="0" class="row">② 控制层 Controller（本项目：web 包 + graphql 包）</tspan></text></g></g><g class="cluster default flowchart-label" id="SEC"><rect style="" rx="0" ry="0" x="1530.2890625" y="353" width="392.703125" height="507.2265625"/><g class="cluster-label" transform="translate(1726.640625, 353)"><text style=""><tspan xml:space="preserve" dy="1em" x="0" class="row">① 安全层（Filter → Interceptor，在 Controller 之前）</tspan></text></g></g></g><g class="edgePaths"><path d="M1793.525,284L1798.337,289.75C1803.148,295.5,1812.771,307,1817.583,318.5C1822.395,330,1822.395,341.5,1819.318,355.502C1816.241,369.504,1810.088,386.008,1807.012,394.26L1803.935,402.512" id="L-A-B1-0" class=" edge-thickness-normal edge-pattern-solid flowchart-link LS-A LE-B1" style="fill:none;" marker-end="url(#mmd-20_flowchart-pointEnd)"/><path d="M1773.105,586.781L1773.022,590.865C1772.939,594.948,1772.772,603.115,1772.755,610.565C1772.738,618.015,1772.87,624.749,1772.936,628.115L1773.002,631.482" id="L-B1-B2-0" class=" edge-thickness-normal edge-pattern-solid flowchart-link LS-B1 LE-B2" style="fill:none;" marker-end="url(#mmd-20_flowchart-pointEnd)"/><path d="M1801.526,807.306L1805.004,816.126C1808.482,824.946,1815.438,842.586,1818.916,857.156C1822.395,871.727,1822.395,883.227,1822.395,894.727C1822.395,906.227,1822.395,917.727,1822.395,930.477C1822.395,943.227,1822.395,957.227,1822.395,972.81C1822.395,988.393,1822.395,1005.56,1822.395,1024.06C1822.395,1042.56,1822.395,1062.393,1822.395,1082.227C1822.395,1102.06,1822.395,1121.893,1822.395,1141.727C1822.395,1161.56,1822.395,1181.393,1822.395,1199.643C1822.395,1217.893,1822.395,1234.56,1822.395,1248.643C1822.395,1262.727,1822.395,1274.227,1822.395,1285.727C1822.395,1297.227,1822.395,1308.727,1822.395,1322.81C1822.395,1336.893,1822.395,1353.56,1822.395,1373.143C1822.395,1392.727,1822.395,1415.227,1808.122,1433.184C1793.849,1451.142,1765.303,1464.557,1751.031,1471.265L1736.758,1477.972" id="L-B2-X-0" class=" edge-thickness-normal edge-pattern-solid flowchart-link LS-B2 LE-X" style="fill:none;" marker-end="url(#mmd-20_flowchart-pointEnd)"/><path d="M1720.185,782.806L1705.338,795.71C1690.492,808.613,1660.799,834.42,1645.952,853.073C1631.105,871.727,1631.105,883.227,1631.105,894.727C1631.105,906.227,1631.105,917.727,1619.844,927.356C1608.582,936.985,1586.058,944.743,1574.796,948.622L1563.535,952.501" id="L-B2-C1-0" class=" edge-thickness-normal edge-pattern-solid flowchart-link LS-B2 LE-C1" style="fill:none;" marker-end="url(#mmd-20_flowchart-pointEnd)"/><path d="M1509.168,988.227L1509.168,993.977C1509.168,999.727,1509.168,1011.227,1509.168,1021.843C1509.168,1032.46,1509.168,1042.193,1509.168,1047.06L1509.168,1051.927" id="L-C1-C2-0" class=" edge-thickness-normal edge-pattern-solid flowchart-link LS-C1 LE-C2" style="fill:none;" marker-end="url(#mmd-20_flowchart-pointEnd)"/><path d="M1509.168,1107.227L1509.168,1112.977C1509.168,1118.727,1509.168,1130.227,1509.168,1140.843C1509.168,1151.46,1509.168,1161.193,1509.168,1166.06L1509.168,1170.927" id="L-C2-C3-0" class=" edge-thickness-normal edge-pattern-solid flowchart-link LS-C2 LE-C3" style="fill:none;" marker-end="url(#mmd-20_flowchart-pointEnd)"/><path d="M1570.521,1226.227L1580.747,1230.393C1590.973,1234.56,1611.424,1242.893,1621.649,1252.81C1631.875,1262.727,1631.875,1274.227,1631.875,1285.727C1631.875,1297.227,1631.875,1308.727,1631.875,1322.81C1631.875,1336.893,1631.875,1353.56,1631.875,1373.143C1631.875,1392.727,1631.875,1415.227,1634.352,1432.738C1636.829,1450.25,1641.784,1462.774,1644.261,1469.036L1646.738,1475.298" id="L-C3-X-0" class=" edge-thickness-normal edge-pattern-solid flowchart-link LS-C3 LE-X" style="fill:none;" marker-end="url(#mmd-20_flowchart-pointEnd)"/><path d="M1424.809,1226.227L1410.749,1230.393C1396.689,1234.56,1368.569,1242.893,1334.909,1252.81C1301.249,1262.727,1262.048,1274.227,1242.448,1285.727C1222.848,1297.227,1222.848,1308.727,1145.484,1321.311C1068.12,1333.896,913.393,1347.565,836.03,1354.399L758.666,1361.234" id="L-C3-D1-0" class=" edge-thickness-normal edge-pattern-solid flowchart-link LS-C3 LE-D1" style="fill:none;" marker-end="url(#mmd-20_flowchart-pointEnd)"/><path d="M753.387,1380.351L844.549,1389.913C935.711,1399.476,1118.035,1418.601,1242.237,1435.067C1366.439,1451.532,1432.519,1465.337,1465.559,1472.24L1498.599,1479.143" id="L-D1-X-0" class=" edge-thickness-normal edge-pattern-solid flowchart-link LS-D1 LE-X" style="fill:none;" marker-end="url(#mmd-20_flowchart-pointEnd)"/><path d="M593.394,1397.306L577.602,1404.043C561.811,1410.78,530.228,1424.253,514.436,1438.523C498.645,1452.793,498.645,1467.86,498.645,1475.393L498.645,1482.927" id="L-D1-D3-0" class=" edge-thickness-normal edge-pattern-solid flowchart-link LS-D1 LE-D3" style="fill:none;" marker-start="url(#mmd-20_flowchart-pointStart)" marker-end="url(#mmd-20_flowchart-pointEnd)"/><path d="M753.387,1385.288L809.393,1394.028C865.398,1402.767,977.41,1420.247,1033.416,1436.52C1089.422,1452.793,1089.422,1467.86,1089.422,1475.393L1089.422,1482.927" id="L-D1-D2-0" class=" edge-thickness-normal edge-pattern-solid flowchart-link LS-D1 LE-D2" style="fill:none;" marker-end="url(#mmd-20_flowchart-pointEnd)"/><path d="M1089.422,1538.227L1089.422,1543.727C1089.422,1549.227,1089.422,1560.227,1089.422,1571.477C1089.422,1582.727,1089.422,1594.227,1089.422,1605.727C1089.422,1617.227,1089.422,1628.727,1057.061,1639.868C1024.7,1651.01,959.977,1661.794,927.616,1667.186L895.255,1672.578" id="L-D2-E1-0" class=" edge-thickness-normal edge-pattern-solid flowchart-link LS-D2 LE-E1" style="fill:none;" marker-end="url(#mmd-20_flowchart-pointEnd)"/><path d="M722.597,1395.227L741.22,1402.31C759.842,1409.393,797.087,1423.56,815.71,1443.227C834.332,1462.893,834.332,1488.06,834.332,1510.31C834.332,1532.56,834.332,1551.893,834.332,1567.31C834.332,1582.727,834.332,1594.227,834.332,1605.727C834.332,1617.227,834.332,1628.727,834.568,1637.762C834.804,1646.798,835.276,1653.369,835.512,1656.655L835.747,1659.94" id="L-D1-E1-0" class=" edge-thickness-normal edge-pattern-solid flowchart-link LS-D1 LE-E1" style="fill:none;" marker-end="url(#mmd-20_flowchart-pointEnd)"/><path d="M676.006,1395.227L681.427,1402.31C686.849,1409.393,697.692,1423.56,703.114,1439.06C708.535,1454.56,708.535,1471.393,708.535,1479.81L708.535,1488.227" id="L-D1-D4-0" class=" edge-thickness-normal edge-pattern-solid flowchart-link LS-D1 LE-D4" style="fill:none;"/><path d="M890.027,1695.982L914.118,1702.273C938.21,1708.564,986.392,1721.145,1010.483,1732.303C1034.574,1743.46,1034.574,1753.193,1034.574,1758.06L1034.574,1762.927" id="L-E1-E2-0" class=" edge-thickness-normal edge-pattern-solid flowchart-link LS-E1 LE-E2" style="fill:none;" marker-end="url(#mmd-20_flowchart-pointEnd)"/><path d="M819.27,1699.227L813.155,1704.977C807.04,1710.727,794.811,1722.227,788.697,1732.843C782.582,1743.46,782.582,1753.193,782.582,1758.06L782.582,1762.927" id="L-E1-E3-0" class=" edge-thickness-normal edge-pattern-solid flowchart-link LS-E1 LE-E3" style="fill:none;" marker-end="url(#mmd-20_flowchart-pointEnd)"/><path d="M1034.574,1818.227L1034.574,1822.393C1034.574,1826.56,1034.574,1834.893,1034.574,1844.81C1034.574,1854.727,1034.574,1866.227,1034.574,1877.727C1034.574,1889.227,1034.574,1900.727,1007.784,1913.884C980.993,1927.042,927.412,1941.857,900.622,1949.265L873.831,1956.672" id="L-E2-F1-0" class=" edge-thickness-normal edge-pattern-solid flowchart-link LS-E2 LE-F1" style="fill:none;" marker-end="url(#mmd-20_flowchart-pointEnd)"/><path d="M782.582,1818.227L782.582,1822.393C782.582,1826.56,782.582,1834.893,782.582,1844.81C782.582,1854.727,782.582,1866.227,782.582,1877.727C782.582,1889.227,782.582,1900.727,786.206,1910.898C789.831,1921.07,797.08,1929.914,800.704,1934.336L804.329,1938.758" id="L-E3-F1-0" class=" edge-thickness-normal edge-pattern-solid flowchart-link LS-E3 LE-F1" style="fill:none;" marker-end="url(#mmd-20_flowchart-pointEnd)"/><path d="M837.348,1996.293L837.348,2002.043C837.348,2007.793,837.348,2019.293,816.449,2030.567C795.55,2041.842,753.753,2052.89,732.854,2058.414L711.955,2063.939" id="L-F1-F2-0" class=" edge-thickness-normal edge-pattern-solid flowchart-link LS-F1 LE-F2" style="fill:none;" marker-end="url(#mmd-20_flowchart-pointEnd)"/><path d="M516.41,2065.293L494.365,2059.543C472.321,2053.793,428.233,2042.293,406.189,2025.871C384.145,2009.449,384.145,1988.104,384.145,1968.343C384.145,1948.582,384.145,1930.404,384.145,1915.565C384.145,1900.727,384.145,1889.227,384.145,1877.727C384.145,1866.227,384.145,1854.727,384.145,1840.643C384.145,1826.56,384.145,1809.893,384.145,1791.643C384.145,1773.393,384.145,1753.56,384.145,1735.06C384.145,1716.56,384.145,1699.393,384.145,1683.81C384.145,1668.227,384.145,1654.227,384.145,1641.477C384.145,1628.727,384.145,1617.227,384.145,1605.727C384.145,1594.227,384.145,1582.727,384.145,1567.31C384.145,1551.893,384.145,1532.56,384.145,1510.31C384.145,1488.06,384.145,1462.893,412.656,1443.253C441.167,1423.614,498.189,1409.501,526.7,1402.444L555.211,1395.388" id="L-F2-D1-0" class=" edge-thickness-normal edge-pattern-solid flowchart-link LS-F2 LE-D1" style="fill:none;" marker-end="url(#mmd-20_flowchart-pointEnd)"/><path d="M560.355,1361.811L480.865,1354.881C401.374,1347.95,242.392,1334.088,162.901,1321.407C83.41,1308.727,83.41,1297.227,83.41,1285.727C83.41,1274.227,83.41,1262.727,83.41,1248.643C83.41,1234.56,83.41,1217.893,83.41,1199.643C83.41,1181.393,83.41,1161.56,83.41,1141.727C83.41,1121.893,83.41,1102.06,83.41,1082.227C83.41,1062.393,83.41,1042.56,83.41,1024.06C83.41,1005.56,83.41,988.393,83.41,972.81C83.41,957.227,83.41,943.227,83.41,930.477C83.41,917.727,83.41,906.227,83.41,894.727C83.41,883.227,83.41,871.727,83.41,845.231C83.41,818.736,83.41,777.245,83.41,735.754C83.41,694.263,83.41,652.772,83.41,610.503C83.41,568.234,83.41,525.188,83.41,482.141C83.41,439.094,83.41,396.047,83.41,368.773C83.41,341.5,83.41,330,83.41,314.333C83.41,298.667,83.41,278.833,83.41,260.583C83.41,242.333,83.41,225.667,83.41,213.167C83.41,200.667,83.41,192.333,83.41,181.167C83.41,170,83.41,156,83.41,142C83.41,128,83.41,114,235.896,99.549C388.381,85.098,693.352,70.195,845.838,62.744L998.324,55.293" id="L-D1-G1-0" class=" edge-thickness-normal edge-pattern-solid flowchart-link LS-D1 LE-G1" style="fill:none;" marker-end="url(#mmd-20_flowchart-pointEnd)"/><path d="M1209.648,57.734L1303.475,64.779C1397.301,71.823,1584.953,85.911,1678.779,96.239C1772.605,106.567,1772.605,113.133,1772.605,116.417L1772.605,119.7" id="L-G1-G2-0" class=" edge-thickness-normal edge-pattern-solid flowchart-link LS-G1 LE-G2" style="fill:none;" marker-end="url(#mmd-20_flowchart-pointEnd)"/><path d="M1772.605,159L1772.605,163.167C1772.605,167.333,1772.605,175.667,1772.605,184C1772.605,192.333,1772.605,200.667,1772.605,208.117C1772.605,215.567,1772.605,222.133,1772.605,225.417L1772.605,228.7" id="L-G2-A-0" class=" edge-thickness-normal edge-pattern-solid flowchart-link LS-G2 LE-A" style="fill:none;" marker-end="url(#mmd-20_flowchart-pointEnd)"/><path d="M1608.109,1480.227L1596.596,1473.143C1585.084,1466.06,1562.06,1451.893,1550.547,1433.56C1539.035,1415.227,1539.035,1392.727,1539.035,1373.143C1539.035,1353.56,1539.035,1336.893,1539.035,1322.81C1539.035,1308.727,1539.035,1297.227,1463.014,1285.727C1386.993,1274.227,1234.952,1262.727,1158.931,1248.643C1082.91,1234.56,1082.91,1217.893,1082.91,1199.643C1082.91,1181.393,1082.91,1161.56,1082.91,1141.727C1082.91,1121.893,1082.91,1102.06,1082.91,1082.227C1082.91,1062.393,1082.91,1042.56,1082.91,1024.06C1082.91,1005.56,1082.91,988.393,1082.91,972.81C1082.91,957.227,1082.91,943.227,1082.91,930.477C1082.91,917.727,1082.91,906.227,1082.91,894.727C1082.91,883.227,1082.91,871.727,1082.91,845.231C1082.91,818.736,1082.91,777.245,1082.91,735.754C1082.91,694.263,1082.91,652.772,1082.91,610.503C1082.91,568.234,1082.91,525.188,1082.91,482.141C1082.91,439.094,1082.91,396.047,1082.91,368.773C1082.91,341.5,1082.91,330,1179.499,315.917C1276.088,301.835,1469.265,285.169,1565.854,276.836L1662.442,268.504" id="L-X-A-0" class=" edge-thickness-normal edge-pattern-solid flowchart-link LS-X LE-A" style="fill:none;" marker-end="url(#mmd-20_flowchart-pointEnd)"/><path d="M944.895,1226.227L944.895,1230.393C944.895,1234.56,944.895,1242.893,944.895,1252.81C944.895,1262.727,944.895,1274.227,944.895,1285.727C944.895,1297.227,944.895,1308.727,913.847,1319.866C882.799,1331.006,820.704,1341.786,789.656,1347.175L758.609,1352.565" id="L-H1-D1-0" class=" edge-thickness-normal edge-pattern-dotted flowchart-link LS-H1 LE-D1" style="fill:none;stroke-width:2px;stroke-dasharray:3;" marker-end="url(#mmd-20_flowchart-pointEnd)"/><path d="M656.871,1226.227L656.871,1230.393C656.871,1234.56,656.871,1242.893,656.871,1252.81C656.871,1262.727,656.871,1274.227,656.871,1285.727C656.871,1297.227,656.871,1308.727,656.871,1317.76C656.871,1326.793,656.871,1333.36,656.871,1336.643L656.871,1339.927" id="L-H2-D1-0" class=" edge-thickness-normal edge-pattern-dotted flowchart-link LS-H2 LE-D1" style="fill:none;stroke-width:2px;stroke-dasharray:3;" marker-end="url(#mmd-20_flowchart-pointEnd)"/><path d="M944.895,1107.227L944.895,1112.977C944.895,1118.727,944.895,1130.227,944.895,1140.843C944.895,1151.46,944.895,1161.193,944.895,1166.06L944.895,1170.927" id="L-H3-H1-0" class=" edge-thickness-normal edge-pattern-dotted flowchart-link LS-H3 LE-H1" style="fill:none;stroke-width:2px;stroke-dasharray:3;" marker-end="url(#mmd-20_flowchart-pointEnd)"/><path d="M295.137,1226.227L295.137,1230.393C295.137,1234.56,295.137,1242.893,295.137,1252.81C295.137,1262.727,295.137,1274.227,295.137,1285.727C295.137,1297.227,295.137,1308.727,338.465,1320.466C381.793,1332.204,468.449,1344.182,511.777,1350.171L555.105,1356.16" id="L-H4-D1-0" class=" edge-thickness-normal edge-pattern-dotted flowchart-link LS-H4 LE-D1" style="fill:none;stroke-width:2px;stroke-dasharray:3;" marker-end="url(#mmd-20_flowchart-pointEnd)"/><path d="M1560.402,284L1572.186,289.75C1583.97,295.5,1607.538,307,1619.322,317.617C1631.105,328.233,1631.105,337.967,1631.105,342.833L1631.105,347.7" id="L-H5-SEC-0" class=" edge-thickness-normal edge-pattern-dotted flowchart-link LS-H5 LE-SEC" style="fill:none;stroke-width:2px;stroke-dasharray:3;" marker-end="url(#mmd-20_flowchart-pointEnd)"/><path d="M1340.449,760.754L1340.449,777.333C1340.449,793.911,1340.449,827.069,1340.449,849.398C1340.449,871.727,1340.449,883.227,1340.449,893.843C1340.449,904.46,1340.449,914.193,1340.449,919.06L1340.449,923.927" id="L-H6-CTRL-0" class=" edge-thickness-normal edge-pattern-dotted flowchart-link LS-H6 LE-CTRL" style="fill:none;stroke-width:2px;stroke-dasharray:3;" marker-end="url(#mmd-20_flowchart-pointEnd)"/></g><g class="edgeLabels"><g class="edgeLabel" transform="translate(1822.39453125, 318.5)"><g class="label" transform="translate(-37.25, -9.5)"><rect rx="0" ry="0" width="74.48464965820312" height="17.403167724609375"/><text style=""><tspan xml:space="preserve" dy="1em" x="0" class="row">HTTP 请求</tspan></text></g></g><g class="edgeLabel"><g class="label" transform="translate(0, 0)"><rect rx="0" ry="0" width="0" height="0"/><text style=""><tspan xml:space="preserve" dy="1em" x="0" class="row"/></text></g></g><g class="edgeLabel" transform="translate(1822.39453125, 1141.7265625)"><g class="label" transform="translate(-77.6015625, -9.5)"><rect rx="0" ry="0" width="155.17825317382812" height="17.403167724609375"/><text style=""><tspan xml:space="preserve" dy="1em" x="0" class="row">未认证/无权限 → 401</tspan></text></g></g><g class="edgeLabel" transform="translate(1631.10546875, 894.7265625)"><g class="label" transform="translate(-16, -9.5)"><rect rx="0" ry="0" width="31.996448516845703" height="17.403167724609375"/><text style=""><tspan xml:space="preserve" dy="1em" x="0" class="row">通过</tspan></text></g></g><g class="edgeLabel"><g class="label" transform="translate(0, 0)"><rect rx="0" ry="0" width="0" height="0"/><text style=""><tspan xml:space="preserve" dy="1em" x="0" class="row"/></text></g></g><g class="edgeLabel"><g class="label" transform="translate(0, 0)"><rect rx="0" ry="0" width="0" height="0"/><text style=""><tspan xml:space="preserve" dy="1em" x="0" class="row"/></text></g></g><g class="edgeLabel" transform="translate(1631.875, 1370.2265625)"><g class="label" transform="translate(-40, -9.5)"><rect rx="0" ry="0" width="79.99111938476562" height="17.403167724609375"/><text style=""><tspan xml:space="preserve" dy="1em" x="0" class="row">参数不合法</tspan></text></g></g><g class="edgeLabel" transform="translate(1222.84765625, 1285.7265625)"><g class="label" transform="translate(-14.609375, -9.5)"><rect rx="0" ry="0" width="29.81675910949707" height="17.403167724609375"/><text style=""><tspan xml:space="preserve" dy="1em" x="0" class="row">DTO</tspan></text></g></g><g class="edgeLabel" transform="translate(1300.359375, 1437.7265625)"><g class="label" transform="translate(-69.234375, -17.5)"><rect rx="0" ry="0" width="138.18296813964844" height="33.403167724609375"/><text style=""><tspan xml:space="preserve" dy="1em" x="0" class="row">业务校验失败</tspan><tspan xml:space="preserve" dy="1em" x="0" class="row">throw BizException</tspan></text></g></g><g class="edgeLabel" transform="translate(498.64453125, 1437.7265625)"><g class="label" transform="translate(-10.02734375, -9.5)"><rect rx="0" ry="0" width="20.654754638671875" height="17.403167724609375"/><text style=""><tspan xml:space="preserve" dy="1em" x="0" class="row">BO</tspan></text></g></g><g class="edgeLabel"><g class="label" transform="translate(0, 0)"><rect rx="0" ry="0" width="0" height="0"/><text style=""><tspan xml:space="preserve" dy="1em" x="0" class="row"/></text></g></g><g class="edgeLabel" transform="translate(1089.421875, 1605.7265625)"><g class="label" transform="translate(-10.40625, -9.5)"><rect rx="0" ry="0" width="21.41239356994629" height="17.403167724609375"/><text style=""><tspan xml:space="preserve" dy="1em" x="0" class="row">DO</tspan></text></g></g><g class="edgeLabel" transform="translate(834.33203125, 1513.2265625)"><g class="label" transform="translate(-10.40625, -9.5)"><rect rx="0" ry="0" width="21.41239356994629" height="17.403167724609375"/><text style=""><tspan xml:space="preserve" dy="1em" x="0" class="row">DO</tspan></text></g></g><g class="edgeLabel"><g class="label" transform="translate(0, 0)"><rect rx="0" ry="0" width="0" height="0"/><text style=""><tspan xml:space="preserve" dy="1em" x="0" class="row"/></text></g></g><g class="edgeLabel"><g class="label" transform="translate(0, 0)"><rect rx="0" ry="0" width="0" height="0"/><text style=""><tspan xml:space="preserve" dy="1em" x="0" class="row"/></text></g></g><g class="edgeLabel"><g class="label" transform="translate(0, 0)"><rect rx="0" ry="0" width="0" height="0"/><text style=""><tspan xml:space="preserve" dy="1em" x="0" class="row"/></text></g></g><g class="edgeLabel" transform="translate(1034.57421875, 1877.7265625)"><g class="label" transform="translate(-40.1640625, -9.5)"><rect rx="0" ry="0" width="80.013671875" height="17.403167724609375"/><text style=""><tspan xml:space="preserve" dy="1em" x="0" class="row">自动拼 SQL</tspan></text></g></g><g class="edgeLabel" transform="translate(782.58203125, 1877.7265625)"><g class="label" transform="translate(-32.1640625, -9.5)"><rect rx="0" ry="0" width="64.01726531982422" height="17.403167724609375"/><text style=""><tspan xml:space="preserve" dy="1em" x="0" class="row">手写 SQL</tspan></text></g></g><g class="edgeLabel" transform="translate(837.34765625, 2030.793140411377)"><g class="label" transform="translate(-40, -9.5)"><rect rx="0" ry="0" width="79.99111938476562" height="17.403167724609375"/><text style=""><tspan xml:space="preserve" dy="1em" x="0" class="row">结果集映射</tspan></text></g></g><g class="edgeLabel" transform="translate(384.14453125, 1733.7265625)"><g class="label" transform="translate(-10.40625, -9.5)"><rect rx="0" ry="0" width="21.41239356994629" height="17.403167724609375"/><text style=""><tspan xml:space="preserve" dy="1em" x="0" class="row">DO</tspan></text></g></g><g class="edgeLabel" transform="translate(83.41015625, 735.75390625)"><g class="label" transform="translate(-20.609375, -9.5)"><rect rx="0" ry="0" width="41.814056396484375" height="17.403167724609375"/><text style=""><tspan xml:space="preserve" dy="1em" x="0" class="row">转 VO</tspan></text></g></g><g class="edgeLabel"><g class="label" transform="translate(0, 0)"><rect rx="0" ry="0" width="0" height="0"/><text style=""><tspan xml:space="preserve" dy="1em" x="0" class="row"/></text></g></g><g class="edgeLabel"><g class="label" transform="translate(0, 0)"><rect rx="0" ry="0" width="0" height="0"/><text style=""><tspan xml:space="preserve" dy="1em" x="0" class="row"/></text></g></g><g class="edgeLabel" transform="translate(1082.91015625, 1022.7265625)"><g class="label" transform="translate(-48, -9.5)"><rect rx="0" ry="0" width="95.98934936523438" height="17.403167724609375"/><text style=""><tspan xml:space="preserve" dy="1em" x="0" class="row">统一错误响应</tspan></text></g></g><g class="edgeLabel"><g class="label" transform="translate(0, 0)"><rect rx="0" ry="0" width="0" height="0"/><text style=""><tspan xml:space="preserve" dy="1em" x="0" class="row"/></text></g></g><g class="edgeLabel"><g class="label" transform="translate(0, 0)"><rect rx="0" ry="0" width="0" height="0"/><text style=""><tspan xml:space="preserve" dy="1em" x="0" class="row"/></text></g></g><g class="edgeLabel"><g class="label" transform="translate(0, 0)"><rect rx="0" ry="0" width="0" height="0"/><text style=""><tspan xml:space="preserve" dy="1em" x="0" class="row"/></text></g></g><g class="edgeLabel"><g class="label" transform="translate(0, 0)"><rect rx="0" ry="0" width="0" height="0"/><text style=""><tspan xml:space="preserve" dy="1em" x="0" class="row"/></text></g></g><g class="edgeLabel"><g class="label" transform="translate(0, 0)"><rect rx="0" ry="0" width="0" height="0"/><text style=""><tspan xml:space="preserve" dy="1em" x="0" class="row"/></text></g></g><g class="edgeLabel"><g class="label" transform="translate(0, 0)"><rect rx="0" ry="0" width="0" height="0"/><text style=""><tspan xml:space="preserve" dy="1em" x="0" class="row"/></text></g></g></g><g class="nodes"><g class="node default default flowchart-label" id="flowchart-G1-353" data-node="true" data-id="G1" transform="translate(1106.6328125, 50)"><rect class="basic label-container" style="" rx="0" ry="0" x="-103.015625" y="-25" width="206.03125" height="50"/><g class="label" style="" transform="translate(0, -17.5)"><rect/><text style=""><tspan xml:space="preserve" dy="1em" x="0" class="row">VO 出参对象</tspan><tspan xml:space="preserve" dy="1em" x="0" class="row">脱敏 · 字段裁剪 · 联表装配</tspan></text></g></g><g class="node default default flowchart-label" id="flowchart-G2-354" data-node="true" data-id="G2" transform="translate(1772.60546875, 142)"><rect class="basic label-container" style="" rx="0" ry="0" x="-73.13671875" y="-17" width="146.2734375" height="34"/><g class="label" style="" transform="translate(0, -9.5)"><rect/><text style=""><tspan xml:space="preserve" dy="1em" x="0" class="row">响应 JSON / HTML</tspan></text></g></g><g class="node default default flowchart-label" id="flowchart-F1-351" label-offset-y="8.355525965379494" data-node="true" data-id="F1" transform="translate(837.34765625, 1966.7598514556885)"><path style="fill:#e3f2fd;stroke:#1e88e5;stroke-width:2px;" d="M 0,8.355525965379494 a 31.375,8.355525965379494 0,0,0 62.75 0 a 31.375,8.355525965379494 0,0,0 -62.75 0 l 0,42.35552596537949 a 31.375,8.355525965379494 0,0,0 62.75 0 l 0,-42.35552596537949" transform="translate(-31.375,-29.53328894806924)"/><g class="label" style="" transform="translate(0, -9.5)"><rect/><text style=""><tspan xml:space="preserve" dy="1em" x="0" class="row">MySQL</tspan></text></g></g><g class="node default default flowchart-label" id="flowchart-F2-352" data-node="true" data-id="F2" transform="translate(612.25390625, 2090.293140411377)"><rect class="basic label-container" style="" rx="0" ry="0" x="-140.7265625" y="-25" width="281.453125" height="50"/><g class="label" style="" transform="translate(0, -17.5)"><rect/><text style=""><tspan xml:space="preserve" dy="1em" x="0" class="row">DO 数据对象</tspan><tspan xml:space="preserve" dy="1em" x="0" class="row">（本项目：entity 包，@TableName）</tspan></text></g></g><g class="node default default flowchart-label" id="flowchart-E1-348" data-node="true" data-id="E1" transform="translate(837.34765625, 1682.2265625)"><rect class="basic label-container" style="fill:#fff3e0;stroke:#fb8c00;stroke-width:2px;" rx="0" ry="0" x="-52.6796875" y="-17" width="105.359375" height="34"/><g class="label" style="" transform="translate(0, -9.5)"><rect/><text style=""><tspan xml:space="preserve" dy="1em" x="0" class="row">Mapper 接口</tspan></text></g></g><g class="node default default flowchart-label" id="flowchart-E2-349" data-node="true" data-id="E2" transform="translate(1034.57421875, 1793.2265625)"><rect class="basic label-container" style="" rx="0" ry="0" x="-101.4296875" y="-25" width="202.859375" height="50"/><g class="label" style="" transform="translate(0, -17.5)"><rect/><text style=""><tspan xml:space="preserve" dy="1em" x="0" class="row">BaseMapper 自动 CRUD</tspan><tspan xml:space="preserve" dy="1em" x="0" class="row">getById · save · list · page</tspan></text></g></g><g class="node default default flowchart-label" id="flowchart-E3-350" data-node="true" data-id="E3" transform="translate(782.58203125, 1793.2265625)"><rect class="basic label-container" style="" rx="0" ry="0" x="-100.5625" y="-25" width="201.125" height="50"/><g class="label" style="" transform="translate(0, -17.5)"><rect/><text style=""><tspan xml:space="preserve" dy="1em" x="0" class="row">XML / 注解 复杂 SQL</tspan><tspan xml:space="preserve" dy="1em" x="0" class="row">JOIN · 动态SQL · 条件更新</tspan></text></g></g><g class="node default default flowchart-label" id="flowchart-D1-344" data-node="true" data-id="D1" transform="translate(656.87109375, 1370.2265625)"><rect class="basic label-container" style="fill:#e8f5e9;stroke:#43a047;stroke-width:2px;" rx="0" ry="0" x="-96.515625" y="-25" width="193.03125" height="50"/><g class="label" style="" transform="translate(0, -17.5)"><rect/><text style=""><tspan xml:space="preserve" dy="1em" x="0" class="row">Service 业务编排</tspan><tspan xml:space="preserve" dy="1em" x="0" class="row">业务规则校验 / 事务边界</tspan></text></g></g><g class="node default default flowchart-label" id="flowchart-D2-345" data-node="true" data-id="D2" transform="translate(1089.421875, 1513.2265625)"><rect class="basic label-container" style="" rx="0" ry="0" x="-96.3515625" y="-25" width="192.703125" height="50"/><g class="label" style="" transform="translate(0, -17.5)"><rect/><text style=""><tspan xml:space="preserve" dy="1em" x="0" class="row">Manager 通用层（可选）</tspan><tspan xml:space="preserve" dy="1em" x="0" class="row">可复用业务 · 第三方封装</tspan></text></g></g><g class="node default default flowchart-label" id="flowchart-D3-346" data-node="true" data-id="D3" transform="translate(498.64453125, 1513.2265625)"><rect class="basic label-container" style="" rx="0" ry="0" x="-79.5" y="-25" width="159" height="50"/><g class="label" style="" transform="translate(0, -17.5)"><rect/><text style=""><tspan xml:space="preserve" dy="1em" x="0" class="row">BO 业务对象</tspan><tspan xml:space="preserve" dy="1em" x="0" class="row">层间传递的复杂对象</tspan></text></g></g><g class="node default default flowchart-label" id="flowchart-D4-347" data-node="true" data-id="D4" transform="translate(708.53515625, 1513.2265625)"><rect class="basic label-container" style="" rx="0" ry="0" x="-80.390625" y="-25" width="160.78125" height="50"/><g class="label" style="" transform="translate(0, -17.5)"><rect/><text style=""><tspan xml:space="preserve" dy="1em" x="0" class="row">@Transactional 事务</tspan><tspan xml:space="preserve" dy="1em" x="0" class="row">（Spring AOP 实现）</tspan></text></g></g><g class="node default default flowchart-label" id="flowchart-C1-341" data-node="true" data-id="C1" transform="translate(1509.16796875, 971.2265625)"><rect class="basic label-container" style="" rx="0" ry="0" x="-80.515625" y="-17" width="161.03125" height="34"/><g class="label" style="" transform="translate(0, -9.5)"><rect/><text style=""><tspan xml:space="preserve" dy="1em" x="0" class="row">接收请求 / 路由分发</tspan></text></g></g><g class="node default default flowchart-label" id="flowchart-C2-342" data-node="true" data-id="C2" transform="translate(1509.16796875, 1082.2265625)"><rect class="basic label-container" style="" rx="0" ry="0" x="-130.8359375" y="-25" width="261.671875" height="50"/><g class="label" style="" transform="translate(0, -17.5)"><rect/><text style=""><tspan xml:space="preserve" dy="1em" x="0" class="row">DTO 入参封装</tspan><tspan xml:space="preserve" dy="1em" x="0" class="row">（本项目：@Argument 逐个声明）</tspan></text></g></g><g class="node default default flowchart-label" id="flowchart-C3-343" data-node="true" data-id="C3" transform="translate(1509.16796875, 1201.2265625)"><rect class="basic label-container" style="" rx="0" ry="0" x="-98.47265625" y="-25" width="196.9453125" height="50"/><g class="label" style="" transform="translate(0, -17.5)"><rect/><text style=""><tspan xml:space="preserve" dy="1em" x="0" class="row">@Valid 参数校验</tspan><tspan xml:space="preserve" dy="1em" x="0" class="row">@NotNull @Size @Pattern</tspan></text></g></g><g class="node default default flowchart-label" id="flowchart-B1-339" data-node="true" data-id="B1" transform="translate(1772.60546875, 482.140625)"><polygon points="104.140625,0 208.28125,-104.140625 104.140625,-208.28125 0,-104.140625" class="label-container" transform="translate(-104.140625,104.140625)" style=""/><g class="label" style="" transform="translate(0, -17.5)"><rect/><text style=""><tspan xml:space="preserve" dy="1em" x="0" class="row">认证 Authentication</tspan><tspan xml:space="preserve" dy="1em" x="0" class="row">你是谁？</tspan></text></g></g><g class="node default default flowchart-label" id="flowchart-B2-340" data-node="true" data-id="B2" transform="translate(1772.60546875, 735.75390625)"><polygon points="99.47265625,0 198.9453125,-99.47265625 99.47265625,-198.9453125 0,-99.47265625" class="label-container" transform="translate(-99.47265625,99.47265625)" style=""/><g class="label" style="" transform="translate(0, -17.5)"><rect/><text style=""><tspan xml:space="preserve" dy="1em" x="0" class="row">授权 Authorization</tspan><tspan xml:space="preserve" dy="1em" x="0" class="row">你能做什么？</tspan></text></g></g><g class="node default default flowchart-label" id="flowchart-A-338" data-node="true" data-id="A" transform="translate(1772.60546875, 259)"><rect class="basic label-container" style="" rx="0" ry="0" x="-104.8828125" y="-25" width="209.765625" height="50"/><g class="label" style="" transform="translate(0, -17.5)"><rect/><text style=""><tspan xml:space="preserve" dy="1em" x="0" class="row">🌐 前端 / 客户端</tspan><tspan xml:space="preserve" dy="1em" x="0" class="row">浏览器 · Vue · App · 第三方</tspan></text></g></g><g class="node default default flowchart-label" id="flowchart-X-355" data-node="true" data-id="X" transform="translate(1661.7421875, 1513.2265625)"><rect class="basic label-container" style="fill:#ffebee;stroke:#e53935;stroke-width:2px;" rx="0" ry="0" x="-237.1484375" y="-33" width="474.296875" height="66"/><g class="label" style="" transform="translate(0, -25.5)"><rect/><text style=""><tspan xml:space="preserve" dy="1em" x="0" class="row">⚠️ 全局异常处理</tspan><tspan xml:space="preserve" dy="1em" x="0" class="row">@ControllerAdvice + @ExceptionHandler</tspan><tspan xml:space="preserve" dy="1em" x="0" class="row">（本项目：GlobalExceptionHandler / GraphqlExceptionConfig）</tspan></text></g></g><g class="node default default flowchart-label" id="flowchart-H1-403" data-node="true" data-id="H1" transform="translate(944.89453125, 1201.2265625)"><rect class="basic label-container" style="" rx="0" ry="0" x="-103.015625" y="-25" width="206.03125" height="50"/><g class="label" style="" transform="translate(0, -17.5)"><rect/><text style=""><tspan xml:space="preserve" dy="1em" x="0" class="row">AOP 切面</tspan><tspan xml:space="preserve" dy="1em" x="0" class="row">操作日志 · 性能统计 · 权限</tspan></text></g></g><g class="node default default flowchart-label" id="flowchart-H2-405" data-node="true" data-id="H2" transform="translate(656.87109375, 1201.2265625)"><rect class="basic label-container" style="" rx="0" ry="0" x="-135.0078125" y="-25" width="270.015625" height="50"/><g class="label" style="" transform="translate(0, -17.5)"><rect/><text style=""><tspan xml:space="preserve" dy="1em" x="0" class="row">定时任务 @Scheduled</tspan><tspan xml:space="preserve" dy="1em" x="0" class="row">（本项目：OverdueTask 标记逾期）</tspan></text></g></g><g class="node default default flowchart-label" id="flowchart-H3-407" data-node="true" data-id="H3" transform="translate(944.89453125, 1082.2265625)"><rect class="basic label-container" style="" rx="0" ry="0" x="-75.3203125" y="-25" width="150.640625" height="50"/><g class="label" style="" transform="translate(0, -17.5)"><rect/><text style=""><tspan xml:space="preserve" dy="1em" x="0" class="row">logback-spring.xml</tspan><tspan xml:space="preserve" dy="1em" x="0" class="row">日志输出规则</tspan></text></g></g><g class="node default default flowchart-label" id="flowchart-H4-409" data-node="true" data-id="H4" transform="translate(295.13671875, 1201.2265625)"><rect class="basic label-container" style="" rx="0" ry="0" x="-176.7265625" y="-25" width="353.453125" height="50"/><g class="label" style="" transform="translate(0, -17.5)"><rect/><text style=""><tspan xml:space="preserve" dy="1em" x="0" class="row">common 公共类 · util 工具类</tspan><tspan xml:space="preserve" dy="1em" x="0" class="row">（本项目：BizException/Const/LoginContext）</tspan></text></g></g><g class="node default default flowchart-label" id="flowchart-H5-411" data-node="true" data-id="H5" transform="translate(1509.16796875, 259)"><rect class="basic label-container" style="" rx="0" ry="0" x="-97.84765625" y="-25" width="195.6953125" height="50"/><g class="label" style="" transform="translate(0, -17.5)"><rect/><text style=""><tspan xml:space="preserve" dy="1em" x="0" class="row">config 配置类</tspan><tspan xml:space="preserve" dy="1em" x="0" class="row">拦截器 · 分页插件 · CORS</tspan></text></g></g><g class="node default default flowchart-label" id="flowchart-H6-413" data-node="true" data-id="H6" transform="translate(1340.44921875, 735.75390625)"><rect class="basic label-container" style="" rx="0" ry="0" x="-155.703125" y="-25" width="311.40625" height="50"/><g class="label" style="" transform="translate(0, -17.5)"><rect/><text style=""><tspan xml:space="preserve" dy="1em" x="0" class="row">接口文档</tspan><tspan xml:space="preserve" dy="1em" x="0" class="row">Knife4j（REST） / GraphiQL（GraphQL）</tspan></text></g></g></g></g></g></svg>